PathFileType	4	(X/Y/Z)	T1_P1_Vision_NoMovement_4_0-684.trc
DataRate	CameraRate	NumFrames	NumMarkers	Units	OrigDataRate	OrigDataStartFrame	OrigNumFrames
60	60	7	27	m	60	171	684
Frame#	Time	RHip			RKnee			RAnkle			RBigToe			RSmallToe			RHeel			LHip			LKnee			LAnkle			LBigToe			LSmallToe			LHeel			Neck			Head			Nose			RShoulder			RElbow			RWrist			RThumb			RIndex			RPinky			LShoulder			LElbow			LWrist			LThumb			LIndex			LPinky		
		X1	Y1	Z1	X2	Y2	Z2	X3	Y3	Z3	X4	Y4	Z4	X5	Y5	Z5	X6	Y6	Z6	X7	Y7	Z7	X8	Y8	Z8	X9	Y9	Z9	X10	Y10	Z10	X11	Y11	Z11	X12	Y12	Z12	X13	Y13	Z13	X14	Y14	Z14	X15	Y15	Z15	X16	Y16	Z16	X17	Y17	Z17	X18	Y18	Z18	X19	Y19	Z19	X20	Y20	Z20	X21	Y21	Z21	X22	Y22	Z22	X23	Y23	Z23	X24	Y24	Z24	X25	Y25	Z25	X26	Y26	Z26	X27	Y27	Z27
172	2.8666666666666667	-66.25919040936684	3788.838767867155	-546.1814439037779	294.0598913616354	3925.46599543054	-501.18686850888594	642.6292941200795	4155.397735014138	-531.9886257541974	699.1466456565178	4043.3968081602716	-456.9361891655424	692.7929824382705	3979.835103947188	-492.57337080614434	686.8805106334732	4195.264402362756	-537.2582317146055	-107.99369565026242	3881.920592784674	-344.8877853514454	239.6008196930604	3967.201793227676	-354.5576323944543	620.6600269722086	4251.744234709273	-459.6698343148185	660.1637356204133	3997.937486835954	-343.23457054081126	669.5473819695208	4129.7602601040335	-344.60718540120905	672.2765021632783	4325.335793371438	-504.3527998234832	-667.8465309029245	3682.3088322143085	-502.63180376659545	-916.4243319104228	3538.8381864764765	-437.34903646290815	-778.0148512335453	3552.449881881592	-403.15694624762546	-559.9466425857108	3669.9998049646315	-665.709599773649	-283.7283229072831	3666.2009052312596	-687.255677630493	-24.895570858931283	3625.093036129114	-598.735218859598	86.63255355877371	3741.5127411539415	-561.5224124622694	113.30934838376852	3694.7280479184747	-550.4386505243639	102.60744145241645	3652.9565086162847	-579.4688127754404	-610.2364734133079	3756.5032224953857	-357.8680007643398	-392.2451786570193	3982.3669235009893	-346.2550515776982	-133.3434439889553	3916.6358982868474	-223.06373299804926	2.1804033764727415	3824.35716882182	-231.6668284366496	19.515891785786327	3851.483482244829	-197.94813199611556	-1.8214887298886315	3972.6239554310982	-209.7744117326759
173	2.8833333333333333	-66.23272886612061	3789.1129532537584	-546.3087214271554	293.1385109545469	3928.38700252902	-502.31617555092544	642.7692926630923	4155.33601241412	-531.9270318039445	700.8037992268697	4047.467542845598	-457.489922323055	692.5666940109865	3984.1834474963066	-494.2590859001392	687.462779368841	4194.335186008256	-536.9481372415137	-107.28254375095992	3882.214403391379	-343.4940554149106	239.82967503772628	3972.4902352376066	-355.5166041665673	620.5637124300714	4251.96143472348	-458.4047975742053	660.8574618695135	3997.986222502076	-343.82235135173147	670.4611998902914	4136.549124220454	-345.87368289077756	672.3526903409809	4324.531363687642	-502.29817324455894	-666.4750321431645	3674.522748602297	-500.7430507451594	-916.4192241254804	3538.8093975054176	-437.3390472103055	-778.0628787759068	3552.7783327979255	-403.4104773035579	-559.9367963026956	3670.040906850202	-665.7318449243967	-282.7335325635138	3666.381501232012	-687.197974690182	-24.59575073767226	3624.978638860045	-597.7035017342325	86.63973554761006	3741.489742852023	-561.5220236023583	113.67703540995804	3694.9963312031396	-550.4640498032393	103.37788553964602	3653.054102250649	-579.4237348022388	-610.2626502893982	3756.4897915476713	-357.85201148855685	-392.229167384801	3982.300425456695	-346.2886793851938	-133.43221625750851	3916.1948248466324	-222.0525366184733	1.456463956879432	3823.776140495003	-231.182761287891	18.790197364649817	3857.819579459869	-198.83044376996492	-1.2598183205873839	3973.4601199265817	-210.64186956696972
174	2.9	-66.20173935485286	3789.2876885195906	-546.3985520740248	291.66076134405154	3931.318970271751	-503.0083274551078	643.1177955211033	4155.255919964535	-531.8344840529691	700.4487671744387	4043.94742552086	-456.2603060185096	691.6792426115763	3986.3390016437443	-494.3622541012986	687.2404816960862	4193.942022052363	-537.0137722625678	-106.95733828236222	3882.2930614119205	-342.7727545430184	240.06094500977568	3977.4074250697636	-356.4087920049455	619.8357327342168	4253.118272957293	-457.8220946730313	661.6986767684905	3997.4052958239336	-343.8119452103468	669.9324582796869	4136.264769650017	-345.8730521524293	671.3185273444992	4323.875898160168	-501.29025265862595	-665.5963899866385	3669.5247804443648	-499.531837181903	-916.3977835178327	3538.7781887804813	-437.3274486152027	-778.0573814905454	3552.866118608713	-403.4694620446926	-559.933002852045	3670.088657413311	-665.7668979589611	-282.06147652165674	3666.4527074812354	-687.1606399050474	-24.431790313845177	3625.403310289248	-597.573533682189	86.66184544737206	3741.5346739404426	-561.577419470553	113.25179208820626	3694.976519254699	-550.6209967767253	104.25851587557882	3653.1550679003935	-579.3991850179029	-610.2774894243535	3756.476894819144	-357.82350125591427	-391.82843126719797	3982.400501113036	-346.2815565362215	-133.53203678163447	3920.4887777412578	-223.09139805922666	0.9960005161587298	3823.1857667867152	-230.35081178462488	18.469151844364127	3863.697018656114	-199.71748106935615	-0.38309678574535927	3974.6684611949076	-212.00840128188307
175	2.9166666666666665	-66.20760065176427	3788.7567957112087	-545.9927682393565	290.1709825533497	3935.936114889867	-505.2453380262073	643.4925678164656	4155.338719885963	-531.6560178733616	697.6811288872939	4034.221376073047	-453.8581535938248	690.683063897761	3985.5127043000252	-493.2357609470429	685.8547435697344	4194.332150445754	-537.3151082948137	-107.32048279043363	3881.9287214752435	-342.50651685347276	240.19024639340364	3979.572086230349	-356.7984408716359	618.7916149193533	4255.724566602232	-458.9530244664296	661.9447229088366	3995.0202174502756	-343.0492695612512	668.3263773639443	4129.852392841698	-344.85078048360555	669.3869642571585	4323.255175945049	-501.270097130549	-665.8598303288856	3670.455491639259	-499.7582538892569	-916.3734885746144	3538.758015819948	-437.31711277768744	-778.0451261567102	3552.8309700414957	-403.4188134607321	-559.9372293397184	3670.108864208661	-665.7796209545077	-282.1747080744623	3666.3984611270535	-687.1642454030971	-23.929550290374742	3625.685118739528	-598.22474793653	86.70084554300139	3741.57302338922	-561.6478185902457	112.6484382061502	3694.7461493362866	-550.7310047087199	104.96016604379687	3653.223652606799	-579.3950743113252	-610.2576469968404	3756.4654952068076	-357.7867485337105	-390.8665263990873	3982.645515232261	-346.04312709876206	-133.5812824873435	3925.817177202397	-224.87989664224932	1.0721530261982801	3822.7949782616147	-229.37683384342006	18.960879128250788	3863.773387776533	-199.78702354669727	0.022655640378809516	3974.964090928972	-212.06279292159297
176	2.933333333333333	-66.28977028357684	3786.782842016485	-544.489686892709	288.41357416166295	3940.0709492447822	-508.5200771988093	643.5084179952988	4155.275844126777	-531.1351786040073	694.0066061922943	4023.227340411926	-451.0429645155467	690.0608654320627	3982.7735557710507	-492.6249582605208	684.0108720200872	4195.2741192142885	-537.1546761696077	-107.47243018360575	3881.7287783316838	-342.51455273548635	240.0925553870051	3976.9026928350445	-356.3193887582645	618.0976186168955	4258.940269118494	-460.4506147356666	662.4850423098694	3991.412015103682	-342.3552240008892	667.8294462473037	4125.8831985523375	-344.09908862574224	667.9942776072836	4322.115045980222	-500.5114727835011	-667.0023557864195	3674.7345792039123	-500.7919777215187	-916.3577896902581	3538.7560877843507	-437.30690475475063	-778.1456841932429	3553.291479272772	-403.7398831086067	-559.9467053524477	3670.082425067664	-665.7554160677673	-282.85623502571326	3666.306929365309	-687.1960751392991	-23.09999589004739	3625.6430473499413	-598.9948219647026	86.72669318603337	3741.5787092056758	-561.7009591501862	112.77157529649368	3694.0775140725523	-550.574636956503	104.8949360276662	3653.2433576359776	-579.4269420221856	-610.2101730588025	3756.457785217003	-357.74467516754174	-389.6784076285316	3982.8065934821125	-345.357878215319	-133.5566953320194	3928.0360148793534	-225.8367610379999	1.2134202488784156	3822.5431720318984	-228.75838555957208	19.767515708127238	3858.4533048930402	-199.02149449859388	-0.5165981649873194	3973.8558899744507	-210.36893021661567
177	2.95	-66.42086352788954	3783.826722599303	-542.2094647517733	287.0452511600313	3939.8934398795286	-510.04666229399965	643.4710835106011	4155.141147245916	-530.28748692118	692.0581186186581	4017.648230350069	-448.6338578753897	690.2777279395738	3980.8969210923888	-493.9390970092836	682.9389367794191	4196.259511278254	-535.8905045363	-106.45379293290638	3882.378738803608	-342.8468450909565	239.86589624272585	3971.38573782527	-355.34236248920854	618.7062897804103	4262.234242454066	-461.000069476841	664.7664456512501	3990.149236429423	-342.6886183773996	669.7822613029498	4129.818842120409	-344.45110537542655	668.5158854498321	4320.552350882623	-497.9697275260794	-668.4602352161247	3679.5386293204224	-501.9452591765207	-916.3549188622436	3538.769987940889	-437.3042705493373	-778.4828358131197	3554.99660445969	-405.0277222609017	-559.9549125936062	3670.0320682788556	-665.7151884506711	-283.2281992507375	3666.3267603499976	-687.2231870260697	-22.611148863388127	3625.409166274118	-599.3267554527217	86.6994911813475	3741.553184766547	-561.7135240071302	113.75432009013068	3692.0148677447264	-549.9160695814585	103.85686116197635	3653.197837275234	-579.4902752424864	-610.1537926020801	3756.460300153795	-357.6931885715211	-388.67024483820256	3982.789553858017	-344.3913592190709	-133.4329533759259	3925.9318684438754	-225.79000028297997	1.1216265517446848	3822.3180914558307	-228.56744905692486	20.256410582908828	3854.406569073868	-198.42184014582188	-1.4308031212356516	3972.3512760458216	-208.42829055746273
178	2.966666666666667	-66.48480831431645	3782.329045147547	-541.0282474244206	287.38362975372564	3935.4803835935963	-508.75673573424893	643.9315756777908	4155.3886332369575	-529.6893068779046	692.8124770022557	4018.8646400232747	-446.83320915633533	691.1972142763293	3980.2124589414348	-496.00422385456125	682.9389955956101	4196.2514162197185	-533.8097313331906	-104.76358922118115	3883.544162124079	-343.33394670030754	239.63012573661436	3966.2359656165627	-354.44288254355996	620.3165496359647	4265.024879376365	-460.6624693598023	668.0244501755537	3993.411894832601	-343.683429087406	672.7042748630377	4137.464168174602	-345.3892503867387	670.2724498553667	4319.491938184846	-495.02005756839196	-669.6910295749453	3684.399488122746	-503.1048119779756	-916.3594216715447	3538.784104424307	-437.3154152185625	-778.9789671315731	3557.607549477783	-407.02936028727487	-559.9559711708469	3669.989152216706	-665.6813744675509	-282.8946637103127	3666.4678288201203	-687.2316866544727	-22.93571264730359	3625.5397308864326	-599.6282890143865	86.61283160992423	3741.524165945224	-561.7054310672393	114.71314847222195	3688.5655351749706	-548.9368638263492	102.3524540556333	3653.091084364041	-579.5622644447296	-610.1062986733959	3756.4659788985446	-357.63807398614557	-388.188677568399	3982.7259210261136	-343.81945928330873	-133.2006211566343	3921.525575274972	-225.68911047877435	1.4464921092475667	3822.277110634381	-228.229675475064	20.391064766547284	3855.926060563851	-198.69405358827308	-1.9886694028046374	3971.5170731132553	-207.45366272973885
